Coordinates
version=1
nRows=12
nColumns=42
inDegrees=yes

Units are S.I. units (second, meters, Newtons, ...)
If the header above contains a line with 'inDegrees', this indicates whether rotational values are in degrees (yes) or radians (no).

endheader
time	pelvis_tilt	pelvis_list	pelvis_rotation	pelvis_tx	pelvis_ty	pelvis_tz	hip_flexion_r	hip_adduction_r	hip_rotation_r	knee_angle_r	knee_adduction_r	knee_angle_r_beta	ankle_angle_r	subtalar_angle_r	mtp_angle_r	hip_flexion_l	hip_adduction_l	hip_rotation_l	knee_angle_l	knee_adduction_l	knee_angle_l_beta	ankle_angle_l	subtalar_angle_l	mtp_angle_l	lumbar_extension	lumbar_bending	lumbar_rotation	arm_flex_r	arm_add_r	arm_rot_r	elbow_flex_r	pro_sup_r	wrist_flex_r	wrist_dev_r	arm_flex_l	arm_add_l	arm_rot_l	elbow_flex_l	pro_sup_l	wrist_flex_l	wrist_dev_l
      0.72000000	      7.12429139	     -0.93876180	     -2.76705656	     -1.91325548	      0.88505105	      0.20016029	     -7.60873862	      7.54442370	    -21.19978902	     12.10663270	     -7.43602577	      0.21130060	     18.28262140	     26.79868940	     -7.58634898	     20.49121938	     -1.09726386	     -1.99529886	     54.91235185	      0.99848572	      0.95840134	      9.66073691	    -15.34796681	     -7.58634898	    -22.93812307	      0.65565097	      9.44373517	     15.93362834	    -24.52800976	     20.26609243	     48.27838777	     90.00000001	      0.00000000	      0.00000000	      1.40038802	    -16.84700708	     28.24173495	     32.53432845	     90.00000001	      0.00000000	      0.00000000
      0.73000000	      7.30550921	     -0.93297783	     -3.08270247	     -1.90123764	      0.88443336	      0.20163686	     -9.02085838	      7.52785805	    -21.12207042	     11.55297321	     -7.29032738	      0.20163742	     18.66151757	     27.39899025	     -7.58349016	     20.82267093	     -0.93915033	     -2.52088188	     51.38581035	      0.73848764	      0.89685158	      9.57275839	    -15.02525745	     -7.58349016	    -23.15476862	      0.54782933	      9.82044557	     16.69391040	    -24.86245680	     20.23396888	     49.17107476	     90.00000001	      0.00000000	      0.00000000	      0.29963407	    -16.68351928	     28.38482796	     32.42640265	     90.00000001	      0.00000000	      0.00000000
      0.74000000	      7.49433195	     -0.94633536	     -3.32796571	     -1.88920887	      0.88358301	      0.20286313	    -10.35755727	      7.50338179	    -21.20932058	     11.14528345	     -7.17933944	      0.19452189	     19.00415033	     27.94820951	     -7.57996665	     21.02516785	     -0.73222818	     -3.30522585	     47.60456099	      0.16894175	      0.83085633	      9.39568430	    -14.53423404	     -7.57996665	    -23.38420950	      0.49389984	     10.09089147	     17.48955343	    -25.17332090	     20.24315856	     49.98415651	     90.00000001	      0.00000000	      0.00000000	     -0.80172613	    -16.53582876	     28.50047729	     32.38702606	     90.00000001	      0.00000000	      0.00000000
      0.75000000	      7.56306835	     -1.04101669	     -3.55052978	     -1.87731876	      0.88229854	      0.20400658	    -11.45572064	      7.58211570	    -21.12184686	     10.94499845	     -7.10457500	      0.19102626	     19.49582432	     28.21146241	     -7.57716257	     21.24513274	     -0.63603813	     -3.92055531	     43.64796053	     -0.26416129	      0.76180062	      9.34603793	    -13.84333105	     -7.57716257	    -23.50635716	      0.54494172	     10.38906822	     18.26420333	    -25.48505433	     20.23475351	     50.73924380	     90.00000001	      0.00000000	      0.00000000	     -1.85034945	    -16.32190621	     28.53460710	     32.29777050	     90.00000001	      0.00000000	      0.00000000
      0.76000000	      7.68205441	     -1.10816366	     -3.68201141	     -1.86525226	      0.88087011	      0.20496327	    -12.58063474	      7.63375124	    -21.19049134	     10.80442826	     -7.07460998	      0.18857285	     19.88229340	     28.45732072	     -7.57362680	     21.27969253	     -0.42807572	     -4.79107133	     39.49941679	     -0.95298612	      0.68939488	      9.24641383	    -12.92682326	     -7.57362680	    -23.66580110	      0.58365946	     10.51746640	     19.06580699	    -25.70449663	     20.30385345	     51.43073070	     90.00000001	      0.00000000	      0.00000000	     -2.94665396	    -16.15961544	     28.48554344	     32.27888328	     90.00000001	      0.00000000	      0.00000000
      0.77000000	      7.69429451	     -1.26378303	     -3.77048508	     -1.85332450	      0.87910175	      0.20573618	    -13.48260432	      7.78285026	    -21.23664027	     10.85327359	     -7.07205788	      0.18942536	     20.34531238	     28.52525762	     -7.57034030	     21.34327381	     -0.30479876	     -5.45244309	     35.28423380	     -1.50304554	      0.61582605	      9.21379613	    -11.78358854	     -7.57034030	    -23.73144945	      0.75120303	     10.66856625	     19.85359809	    -25.94381132	     20.35222283	     52.00269209	     90.00000001	      0.00000000	      0.00000000	     -3.96500810	    -15.94131858	     28.39305955	     32.25780432	     90.00000001	      0.00000000	      0.00000000
      0.78000000	      7.60584470	     -1.48354794	     -3.80776402	     -1.84142656	      0.87702752	      0.20641199	    -14.17469916	      8.02681833	    -21.23691107	     11.10287174	     -7.13115678	      0.19378167	     20.83092152	     28.38508701	     -7.56795985	     21.42569211	     -0.25051434	     -5.84369033	     31.07369006	     -1.87856382	      0.54233820	      9.16531197	    -10.39423015	     -7.56795985	    -23.68738118	      1.00817530	     10.79095939	     20.60639439	    -26.12308482	     20.38659616	     52.47031952	     90.00000001	      0.00000000	      0.00000000	     -4.94171329	    -15.70122573	     28.31109302	     32.20209442	     90.00000001	      0.00000000	      0.00000000
      0.79000000	      7.59807582	     -1.65032596	     -3.78097308	     -1.82933511	      0.87494237	      0.20688007	    -14.96320394	      8.21721902	    -21.34611348	     11.33894011	     -7.23301380	      0.19790184	     21.23387600	     28.29878492	     -7.56529864	     21.33298185	     -0.06522738	     -6.35801048	     26.91345584	     -2.36947812	      0.46972842	      9.11748725	     -8.79510281	     -7.56529864	    -23.71376683	      1.21772602	     10.77769910	     21.35195105	    -26.24742208	     20.45900640	     52.88021096	     90.00000001	      0.00000000	      0.00000000	     -5.91262066	    -15.50297704	     28.15985430	     32.20883295	     90.00000001	      0.00000000	      0.00000000
      0.80000000	      7.15457231	     -2.07153684	     -3.70105306	     -1.81765258	      0.87200252	      0.20749841	    -15.08939632	      8.92041278	    -21.34041669	     11.75382608	     -7.73899260	      0.20514296	     21.53555214	     28.00473085	     -7.56391370	     21.96410285	     -0.27006936	     -6.60808769	     23.47284304	     -2.65725450	      0.40967840	      8.89837437	     -7.40968148	     -7.56391370	    -23.30796880	      1.72444579	     10.86027611	     21.99251781	    -26.35229124	     20.40980654	     53.20183122	     90.00000001	      0.00000000	      0.00000000	     -6.80197305	    -15.29649534	     28.14065954	     32.23679635	     90.00000001	      0.00000000	      0.00000000
      0.81000000	      7.37908750	     -2.09225483	     -3.63253535	     -1.80511312	      0.87023772	      0.20749409	    -16.12314941	      8.70203892	    -21.65470458	     12.19349371	     -7.51278052	      0.21281661	     21.97171273	     27.99114415	     -7.56134471	     21.32817917	      0.18707908	     -6.81939857	     19.48853589	     -3.04408365	      0.34013912	      8.85703778	     -5.24538919	     -7.56134471	    -23.53641281	      1.79693512	     10.67547396	     22.70188182	    -26.34439199	     20.48984888	     53.44811110	     90.00000001	      0.00000000	      0.00000000	     -7.66608280	    -15.08720021	     27.96782447	     32.19980949	     90.00000001	      0.00000000	      0.00000000
      0.82000000	      6.97136543	     -2.47912713	     -3.54852663	     -1.79316359	      0.86734231	      0.20797680	    -16.23493240	      9.28767379	    -21.66518125	     12.77825453	     -7.97678186	      0.22302261	     22.19166489	     27.76455628	     -7.56005079	     21.89216078	     -0.00621434	     -6.94138516	     16.84259244	     -3.17157442	      0.29395869	      8.55627927	     -3.81501918	     -7.56005079	    -23.13487801	      2.25108849	     10.69043233	     23.22754433	    -26.34503978	     20.40112751	     53.62641257	     90.00000001	      0.00000000	      0.00000000	     -8.42857756	    -14.90294033	     27.98234886	     32.21288810	     90.00000001	      0.00000000	      0.00000000
      0.83000000	      7.07057331	     -2.50811646	     -3.47682107	     -1.78048449	      0.86533981	      0.20791590	    -16.99340041	      9.09263156	    -22.03920978	     13.44670048	     -7.91917092	      0.23468920	     22.54163578	     27.88680762	     -7.55768288	     21.58705532	      0.40297279	     -7.13499036	     14.16519577	     -3.53069793	      0.24722931	      8.48623576	     -1.77430135	     -7.55768288	    -23.20553876	      2.31935504	     10.50823216	     23.73624565	    -26.24598823	     20.30547626	     53.76458326	     90.00000001	      0.00000000	      0.00000000	     -9.13078355	    -14.75685577	     27.99794629	     32.16986642	     90.00000001	      0.00000000	      0.00000000
